<svg xmlns="http://www.w3.org/2000/svg" fill="black">
  <g>
  <path d="M9.087 7.285c4.417-.1 8.564 3.492 9.03 7.897.56 3.872-1.72 7.893-5.287 9.464-2.163 1.073-4.604.743-6.93.798H3.627v7.28H.03c.007-5.617-.014-11.234.01-16.85.12-4.186 3.545-7.932 7.682-8.49.45-.066.91-.1 1.365-.1zm0 14.56c2.596.064 5.03-1.96 5.42-4.533.517-2.588-1.135-5.37-3.66-6.146-2.438-.866-5.372.272-6.564 2.575-.922 1.576-.594 3.434-.656 5.167v2.938h5.46zM19.854 7.197h3.557v18.16h-3.556V7.196zm14.25 11.42h.13l5.057 6.745h4.41l-6.874-9.34 6.096-8.816h-4.41l-4.28 6.225h-.128l-4.28-6.224h-4.41l6.095 8.818-6.873 9.336h4.41z"/><path d="M51.763 7.197c3.603-.07 7.06 2.29 8.394 5.624.694 1.55.683 3.264.66 4.926v7.61c-3.21-.01-6.422.022-9.636-.018-3.688-.18-7.065-2.87-8.12-6.404-.97-3.07-.166-6.635 2.116-8.932C46.88 8.24 49.3 7.176 51.76 7.2zm5.46 14.56c-.015-2.02.033-4.04-.028-6.058-.212-2.705-2.718-4.972-5.432-4.9-2.582-.064-5.015 1.937-5.42 4.492-.472 2.454.937 5.126 3.276 6.04 1.442.628 3.035.367 4.56.423h3.045zM71.656 7.285c4.262-.104 8.245 3.25 8.924 7.445.77 3.98-1.476 8.278-5.182 9.916-3.62 1.71-8.275.607-10.764-2.523-1.542-1.817-2.208-4.235-2.077-6.59V.006h3.6v7.28h5.5zm0 14.56c2.733.073 5.23-2.223 5.433-4.942.34-2.702-1.662-5.42-4.337-5.912-1.48-.204-2.982-.065-4.472-.11h-2.124c.022 2.054-.05 4.11.042 6.158.286 2.71 2.735 4.856 5.46 4.8zM91.158 7.197c3.604-.07 7.06 2.29 8.394 5.624.696 1.55.686 3.264.664 4.926v7.61c-3.21-.01-6.424.022-9.636-.018-3.69-.18-7.067-2.87-8.124-6.404-.97-3.07-.165-6.635 2.117-8.932 1.702-1.762 4.122-2.826 6.582-2.803zm5.46 14.56c-.016-2.02.032-4.04-.027-6.058-.208-2.705-2.715-4.972-5.43-4.9-2.58-.064-5.014 1.937-5.417 4.492-.474 2.454.936 5.126 3.274 6.04 1.44.628 3.033.367 4.556.423h3.045zM120.025 7.24c-.007 5.605.015 11.208-.01 16.81-.13 4.41-3.922 8.374-8.345 8.604-.84.044-1.682.016-2.523.022v-3.598c1.536-.007 3.178.15 4.537-.72 1.7-.955 2.78-2.878 2.743-4.822-3.19 2.574-8.136 2.44-11.238-.214-2.262-1.825-3.497-4.76-3.323-7.65v-8.43h3.6c.016 3.205-.034 6.413.026 9.617.195 2.587 2.46 4.797 5.055 4.926 2.674.276 5.306-1.74 5.77-4.383.203-1.48.067-2.984.108-4.476V7.245h3.6z"/>
  </g>
</svg>

